<svg width="20" height="20" viewBox="0 0 20 20" fill="none" xmlns="http://www.w3.org/2000/svg">
<g clip-path="url(#clip0_33_1018)">
<path fill-rule="evenodd" clip-rule="evenodd" d="M10 2.21252C15.16 2.21252 18.1 5.74419 19.3925 7.84919C19.7921 8.49545 20.0037 9.24023 20.0037 10C20.0037 10.7598 19.7921 11.5046 19.3925 12.1509C18.1 14.2559 15.16 17.7875 10 17.7875C4.84004 17.7875 1.90004 14.2559 0.607543 12.1509C0.207983 11.5046 -0.00366211 10.7598 -0.00366211 10C-0.00366211 9.24023 0.207983 8.49545 0.607543 7.84919C1.90004 5.74419 4.84004 2.21252 10 2.21252ZM10 16.1209C14.3492 16.1209 16.8617 13.0834 17.9717 11.2784C18.2091 10.8942 18.3348 10.4516 18.3348 10C18.3348 9.54846 18.2091 9.10582 17.9717 8.72169C16.8617 6.91336 14.3492 3.87919 10 3.87919C5.65088 3.87919 3.13838 6.91669 2.02838 8.72169C1.79099 9.10582 1.66525 9.54846 1.66525 10C1.66525 10.4516 1.79099 10.8942 2.02838 11.2784C3.13838 13.0834 5.65088 16.1209 10 16.1209ZM7.68513 6.53557C8.37033 6.07773 9.17591 5.83336 10 5.83336C11.1047 5.83469 12.1637 6.2741 12.9448 7.05521C13.7259 7.83633 14.1653 8.89537 14.1667 10C14.1667 10.8241 13.9223 11.6297 13.4645 12.3149C13.0066 13.0001 12.3559 13.5342 11.5945 13.8495C10.8332 14.1649 9.99538 14.2474 9.18713 14.0866C8.37887 13.9259 7.63644 13.529 7.05372 12.9463C6.471 12.3636 6.07417 11.6212 5.9134 10.8129C5.75262 10.0047 5.83514 9.16688 6.1505 8.40552C6.46587 7.64416 6.99992 6.99341 7.68513 6.53557ZM8.61108 12.0787C9.0222 12.3534 9.50555 12.5 10 12.5C10.663 12.5 11.2989 12.2366 11.7678 11.7678C12.2366 11.299 12.5 10.6631 12.5 10C12.5 9.50558 12.3534 9.02223 12.0787 8.6111C11.804 8.19998 11.4135 7.87955 10.9567 7.69033C10.4999 7.50111 9.99723 7.4516 9.51228 7.54807C9.02732 7.64453 8.58187 7.88263 8.23223 8.23226C7.8826 8.58189 7.6445 9.02735 7.54804 9.5123C7.45158 9.99726 7.50108 10.4999 7.6903 10.9567C7.87952 11.4136 8.19995 11.804 8.61108 12.0787Z" fill="#838589"/>
</g>
<defs>
<clipPath id="clip0_33_1018">
<rect width="20" height="20" fill="white"/>
</clipPath>
</defs>
</svg>
