<svg width="21" height="21" viewBox="0 0 21 21" fill="none" xmlns="http://www.w3.org/2000/svg">
<path d="M20.9999 10.75C20.9979 10.3116 20.9715 9.87356 20.9209 9.43803C20.9057 9.31643 20.8464 9.20465 20.7542 9.12391C20.6621 9.04317 20.5434 8.99908 20.4209 9.00003H19.9999V6.50003C19.9973 5.97917 19.8321 5.47213 19.5273 5.04974C19.2225 4.62735 18.7934 4.3107 18.2999 4.14403L19.4999 2.26803C19.5565 2.17936 19.5837 2.0751 19.5776 1.97009C19.5715 1.86509 19.5324 1.76468 19.466 1.68315C19.3995 1.60163 19.309 1.54314 19.2074 1.516C19.1058 1.48887 18.9982 1.49448 18.8999 1.53203L16.6529 2.38103L15.4349 0.252028C15.3875 0.180031 15.3229 0.120939 15.247 0.0800515C15.171 0.0391645 15.0861 0.0177612 14.9999 0.0177612C14.9137 0.0177612 14.8288 0.0391645 14.7529 0.0800515C14.677 0.120939 14.6124 0.180031 14.5649 0.252028L13.3509 2.38103L11.0999 1.53203C11.0017 1.49448 10.8941 1.48887 10.7924 1.516C10.6908 1.54314 10.6003 1.60163 10.5339 1.68315C10.4674 1.76468 10.4284 1.86509 10.4223 1.97009C10.4162 2.0751 10.4433 2.17936 10.4999 2.26803L11.6999 4.14403C11.2199 4.3064 10.8009 4.61122 10.4986 5.01786C10.1963 5.4245 10.0251 5.91363 10.0079 6.42003V6.44603C10.0079 6.46403 10.0029 6.48103 10.0029 6.50003V9.00003H3.07492C2.95238 8.99908 2.83377 9.04317 2.74159 9.12391C2.64942 9.20465 2.59011 9.31643 2.57492 9.43803C2.52568 9.87364 2.50064 10.3116 2.49992 10.75C2.5047 11.3037 2.55858 11.8559 2.66092 12.4C2.14584 12.6037 1.7081 12.9646 1.4099 13.4314C1.11171 13.8982 0.968248 14.447 0.999915 15C0.999915 16.583 1.70592 19.673 3.40792 19.991C3.46854 20.0028 3.53015 20.0088 3.59192 20.009C3.88747 19.9873 4.17222 19.8887 4.41792 19.723C4.59096 19.6026 4.7907 19.5261 4.99992 19.5C5.20579 19.5329 5.4026 19.6082 5.57792 19.721C5.87251 19.9188 6.22372 20.0146 6.57792 19.994C6.8409 19.944 7.09129 19.8421 7.31448 19.6942C7.53767 19.5464 7.72921 19.3556 7.87792 19.133C9.09085 19.6982 10.4118 19.994 11.7499 20C11.9499 20 12.1499 19.982 12.3499 19.97C12.3981 19.9875 12.4487 19.9976 12.4999 20H17.4999C18.163 20 18.7988 19.7366 19.2677 19.2678C19.7365 18.799 19.9999 18.1631 19.9999 17.5V14.911C20.6561 13.6221 20.9987 12.1964 20.9999 10.75ZM18.9999 6.50003V7.58703L14.9489 5.00003H17.4999C17.8977 5.00003 18.2793 5.15806 18.5606 5.43937C18.8419 5.72067 18.9999 6.1022 18.9999 6.50003ZM13.3999 3.46803C13.5114 3.51037 13.6343 3.51146 13.7466 3.47112C13.8588 3.43078 13.9529 3.35166 14.0119 3.24803L14.9999 1.50903L15.9919 3.24803C16.0509 3.35166 16.145 3.43078 16.2573 3.47112C16.3695 3.51146 16.4924 3.51037 16.6039 3.46803L17.8469 3.00003L17.2099 4.00003H12.7899L12.1529 3.00003L13.3999 3.46803ZM12.4999 5.00003H13.0899L18.9999 8.77403V9.00003H15.6379L11.0269 6.23303C11.0894 5.88764 11.271 5.5751 11.5402 5.34981C11.8093 5.12452 12.1489 5.00074 12.4999 5.00003ZM10.9999 7.38303L13.6999 9.00003H10.9999V7.38303ZM6.43092 19.005C6.29496 18.9662 6.16481 18.9094 6.04392 18.836C5.72889 18.6398 5.37027 18.5244 4.99992 18.5C4.61783 18.5185 4.24782 18.6398 3.92892 18.851C3.82437 18.918 3.71138 18.9708 3.59292 19.008C2.68392 18.838 1.99992 16.459 1.99992 15C1.99992 14.211 2.28592 13.2 4.41292 13.033C4.41353 13.3844 4.44701 13.7349 4.51292 14.08C4.53746 14.191 4.59907 14.2903 4.6876 14.3615C4.77612 14.4328 4.88628 14.4718 4.99992 14.472C5.03558 14.472 5.07114 14.468 5.10592 14.46C5.23523 14.432 5.34815 14.3538 5.41994 14.2427C5.49173 14.1315 5.51653 13.9964 5.48891 13.867C5.44022 13.5883 5.41546 13.306 5.41492 13.023C7.69991 13.142 7.99992 14.191 7.99992 15C7.99992 16.568 7.39992 18.851 6.43092 19.005ZM8.36491 18.259C8.49465 17.9487 8.60128 17.6291 8.68392 17.303C9.72498 17.797 10.8692 18.0346 12.0208 17.9959C13.1725 17.9572 14.2982 17.6434 15.3037 17.0807C16.3093 16.518 17.1656 15.7228 17.801 14.7615C18.4363 13.8001 18.8324 12.7007 18.9559 11.555C18.9636 11.4896 18.9582 11.4233 18.9402 11.36C18.9221 11.2966 18.8917 11.2374 18.8508 11.1859C18.8098 11.1343 18.759 11.0913 18.7014 11.0594C18.6437 11.0275 18.5804 11.0074 18.5149 11C18.4494 10.9915 18.3828 10.9964 18.3192 11.0142C18.2556 11.032 18.1962 11.0624 18.1446 11.1036C18.093 11.1449 18.0502 11.1961 18.0188 11.2542C17.9874 11.3124 17.9681 11.3762 17.9619 11.442C17.8526 12.4499 17.4991 13.4159 16.932 14.2563C16.3649 15.0967 15.6014 15.7861 14.7077 16.2646C13.8139 16.7432 12.817 16.9966 11.8032 17.0028C10.7894 17.0089 9.7894 16.7677 8.88992 16.3C8.95745 15.8699 8.99421 15.4354 8.99992 15C8.99992 13.706 8.37592 12.178 5.51192 12.016C5.55167 11.8116 5.60853 11.6109 5.68192 11.416C5.72712 11.293 5.72225 11.1572 5.66834 11.0378C5.61442 10.9184 5.51579 10.8249 5.39365 10.7774C5.27151 10.73 5.13562 10.7324 5.01523 10.7841C4.89485 10.8359 4.79957 10.9328 4.74992 11.054C4.63227 11.3655 4.54683 11.6882 4.49492 12.017C4.20375 12.0319 3.91383 12.0653 3.62692 12.117C3.54663 11.6657 3.50415 11.2084 3.49992 10.75C3.49992 10.529 3.51192 10.255 3.52892 10H19.9709C19.9879 10.255 19.9999 10.529 19.9999 10.75C20.0045 12.1291 19.6622 13.4872 19.0044 14.6993C18.3467 15.9114 17.3947 16.9386 16.2359 17.6864C15.0772 18.4342 13.749 18.8786 12.3736 18.9787C10.9982 19.0787 9.61966 18.8313 8.36491 18.259ZM18.9999 17.5C18.9999 17.8979 18.8419 18.2794 18.5606 18.5607C18.2793 18.842 17.8977 19 17.4999 19H15.9109C17.1111 18.3925 18.165 17.5317 18.9999 16.477V17.5Z" fill="#FE6E4C"/>
</svg>
