<svg width="8" height="15" viewBox="0 0 8 15" fill="none" xmlns="http://www.w3.org/2000/svg">
<path d="M2.59991 8.20704C2.41244 8.01951 2.30712 7.76521 2.30712 7.50004C2.30712 7.23488 2.41244 6.98057 2.59991 6.79304L7.18491 2.20704C7.36706 2.01844 7.46786 1.76584 7.46558 1.50364C7.4633 1.24144 7.35813 0.990631 7.17272 0.805223C6.98732 0.619815 6.7365 0.514645 6.47431 0.512367C6.21211 0.510088 5.95951 0.610883 5.77091 0.793041L1.18891 5.37904C0.626493 5.94162 0.310547 6.70455 0.310547 7.50004C0.310547 8.29553 0.626493 9.05846 1.18891 9.62104L5.77491 14.207C5.96351 14.3892 6.21611 14.49 6.47831 14.4877C6.7405 14.4854 6.99132 14.3803 7.17673 14.1949C7.36213 14.0095 7.4673 13.7586 7.46958 13.4964C7.47186 13.2342 7.37106 12.9816 7.18891 12.793L2.59991 8.20704Z" fill="#161616"/>
</svg>
