<svg width="21" height="19" viewBox="0 0 21 19" fill="none" xmlns="http://www.w3.org/2000/svg">
<path d="M17.776 2.37499C15.9911 1.19888 13.89 0.595022 11.753 0.643995C6.333 0.643995 0.5 4.02599 0.5 11.452V13.452C0.5 17.222 3.305 18.979 5.2 18.979C6.26106 18.9226 7.28105 18.5503 8.129 17.91C8.81402 17.3825 9.63799 17.0663 10.5 17C10.758 17 11.1 17.032 11.5 17.069C13.311 17.236 16.341 17.513 18.4 15.636C19.8 14.363 20.5 12.298 20.5 9.5V7.49999C20.5094 6.48633 20.2651 5.48641 19.7894 4.59128C19.3136 3.69616 18.6215 2.93427 17.776 2.37499ZM11.753 1.64399C15.484 1.64399 19.5 3.47699 19.5 7.49999C19.5 10.005 18.9 11.821 17.723 12.9C15.992 14.481 13.344 14.237 11.589 14.076C11.154 14.036 10.782 14.003 10.5 14.003C9.44945 14.061 8.43992 14.4303 7.6 15.064C6.90657 15.5974 6.07237 15.9164 5.2 15.982C3.708 15.982 1.5 14.543 1.5 11.455C1.5 4.713 6.815 1.64399 11.753 1.64399ZM17.723 14.9C15.992 16.481 13.344 16.237 11.589 16.076C11.154 16.036 10.782 16.003 10.5 16.003C9.44945 16.061 8.43992 16.4303 7.6 17.064C6.90657 17.5974 6.07237 17.9164 5.2 17.982C4.43174 17.9207 3.69927 17.6314 3.0964 17.1513C2.49353 16.6712 2.04769 16.022 1.816 15.287C2.23035 15.7906 2.74546 16.2021 3.32824 16.4948C3.91102 16.7876 4.54859 16.9552 5.2 16.987C6.26106 16.9306 7.28105 16.5583 8.129 15.918C8.81309 15.3877 9.63714 15.0686 10.5 15C10.758 15 11.1 15.032 11.5 15.069C13.311 15.236 16.341 15.513 18.4 13.636C18.5882 13.4632 18.7631 13.2763 18.923 13.077C18.6687 13.769 18.258 14.3928 17.723 14.9Z" fill="#9B81E5"/>
</svg>
