<svg width="19" height="20" viewBox="0 0 19 20" fill="none" xmlns="http://www.w3.org/2000/svg">
<path d="M18.7958 11.3854L17.2125 5.68877C16.7484 4.01988 15.7398 2.55401 14.3469 1.52416C12.9541 0.494311 11.257 -0.0404109 9.52537 0.00498919C7.79375 0.0503893 6.12699 0.673306 4.79004 1.77472C3.45308 2.87614 2.52266 4.39285 2.14665 6.08377L0.920818 11.5963C0.785414 12.2054 0.788545 12.8371 0.929979 13.4449C1.07141 14.0526 1.34754 14.6208 1.73797 15.1076C2.1284 15.5943 2.62317 15.9871 3.18574 16.2571C3.74832 16.527 4.36434 16.6671 4.98832 16.6671H5.91665C6.10791 17.609 6.61893 18.4558 7.3631 19.0641C8.10728 19.6723 9.03885 20.0046 9.99998 20.0046C10.9611 20.0046 11.8927 19.6723 12.6369 19.0641C13.381 18.4558 13.8921 17.609 14.0833 16.6671H14.7817C15.424 16.6671 16.0576 16.5187 16.6331 16.2333C17.2086 15.9479 17.7103 15.5333 18.099 15.022C18.4877 14.5106 18.753 13.9163 18.874 13.2855C18.995 12.6546 18.9685 12.0043 18.7966 11.3854H18.7958ZM9.99998 18.3338C9.48477 18.3316 8.98279 18.1704 8.56274 17.872C8.14268 17.5737 7.82505 17.1529 7.65332 16.6671H12.3467C12.1749 17.1529 11.8573 17.5737 11.4372 17.872C11.0172 18.1704 10.5152 18.3316 9.99998 18.3338ZM16.7717 14.0129C16.5394 14.321 16.2386 14.5706 15.893 14.7421C15.5474 14.9135 15.1666 15.002 14.7808 15.0004H4.98832C4.61397 15.0004 4.24442 14.9162 3.90694 14.7542C3.56945 14.5923 3.27266 14.3565 3.03845 14.0645C2.80425 13.7725 2.63862 13.4316 2.55379 13.067C2.46895 12.7024 2.46709 12.3234 2.54832 11.9579L3.77332 6.4446C4.06861 5.11644 4.79941 3.9251 5.84953 3.05997C6.89966 2.19485 8.20884 1.70558 9.56896 1.66995C10.9291 1.63431 12.2621 2.05436 13.3561 2.86332C14.4501 3.67228 15.2422 4.82372 15.6067 6.1346L17.19 11.8313C17.2946 12.2024 17.3113 12.5928 17.2386 12.9715C17.166 13.3502 17.0061 13.7068 16.7717 14.0129Z" fill="#0C1A30"/>
</svg>
