<svg width="20" height="20" viewBox="0 0 20 20" fill="none" xmlns="http://www.w3.org/2000/svg">
<path fill-rule="evenodd" clip-rule="evenodd" d="M9.77346 18.2615C9.86574 18.3097 9.96893 18.3342 10.0721 18.3334C10.1753 18.3326 10.2777 18.3072 10.3708 18.2582L13.344 16.6688C14.1872 16.2194 14.8474 15.7168 15.3625 15.1317C16.4825 13.8569 17.0941 12.2299 17.0832 10.5523L17.048 5.0184C17.0446 4.38101 16.626 3.81226 16.0068 3.60551L10.4757 1.74972C10.1426 1.63695 9.77765 1.6394 9.45046 1.75544L3.94025 3.67742C3.32446 3.89234 2.91338 4.46518 2.91673 5.10339L2.95197 10.6332C2.96287 12.3133 3.59544 13.9329 4.73389 15.1946C5.25404 15.7715 5.92017 16.2668 6.77254 16.7088L9.77346 18.2615ZM8.98635 11.7575C9.11052 11.8768 9.27159 11.9357 9.43267 11.934C9.59375 11.9332 9.75399 11.8727 9.87648 11.7518L13.1257 8.54849C13.3699 8.30743 13.3673 7.92009 13.1207 7.68229C12.8732 7.4445 12.4747 7.44613 12.2306 7.6872L9.42344 10.4541L8.27408 9.34932C8.02659 9.11152 7.62893 9.11398 7.38396 9.35504C7.13983 9.59611 7.14234 9.98345 7.38983 10.2212L8.98635 11.7575Z" fill="#1AB44E"/>
</svg>
