<svg width="48" height="48" viewBox="0 0 48 48" fill="none" xmlns="http://www.w3.org/2000/svg">
<rect width="48" height="48" rx="10" fill="#FFECE8"/>
<path d="M34 23.75C33.9979 23.3116 33.9715 22.8736 33.921 22.438C33.9058 22.3164 33.8465 22.2047 33.7543 22.1239C33.6621 22.0432 33.5435 21.9991 33.421 22H33V19.5C32.9974 18.9792 32.8321 18.4721 32.5273 18.0497C32.2226 17.6273 31.7935 17.3107 31.3 17.144L32.5 15.268C32.5566 15.1794 32.5837 15.0751 32.5776 14.9701C32.5715 14.8651 32.5325 14.7647 32.466 14.6832C32.3995 14.6016 32.3091 14.5431 32.2074 14.516C32.1058 14.4889 31.9982 14.4945 31.9 14.532L29.653 15.381L28.435 13.252C28.3875 13.18 28.3229 13.1209 28.247 13.0801C28.1711 13.0392 28.0862 13.0178 28 13.0178C27.9137 13.0178 27.8289 13.0392 27.7529 13.0801C27.677 13.1209 27.6124 13.18 27.565 13.252L26.351 15.381L24.1 14.532C24.0017 14.4945 23.8941 14.4889 23.7925 14.516C23.6909 14.5431 23.6004 14.6016 23.5339 14.6832C23.4675 14.7647 23.4284 14.8651 23.4223 14.9701C23.4162 15.0751 23.4434 15.1794 23.5 15.268L24.7 17.144C24.22 17.3064 23.8009 17.6112 23.4986 18.0179C23.1963 18.4245 23.0252 18.9136 23.008 19.42V19.446C23.008 19.464 23.003 19.481 23.003 19.5V22H16.075C15.9524 21.9991 15.8338 22.0432 15.7417 22.1239C15.6495 22.2047 15.5902 22.3164 15.575 22.438C15.5257 22.8736 15.5007 23.3116 15.5 23.75C15.5048 24.3037 15.5586 24.8559 15.661 25.4C15.1459 25.6037 14.7082 25.9646 14.41 26.4314C14.1118 26.8982 13.9683 27.447 14 28C14 29.583 14.706 32.673 16.408 32.991C16.4686 33.0028 16.5302 33.0088 16.592 33.009C16.8875 32.9873 17.1723 32.8887 17.418 32.723C17.591 32.6026 17.7908 32.5261 18 32.5C18.2058 32.5329 18.4027 32.6082 18.578 32.721C18.8726 32.9188 19.2238 33.0146 19.578 32.994C19.841 32.944 20.0913 32.8421 20.3145 32.6942C20.5377 32.5464 20.7293 32.3556 20.878 32.133C22.0909 32.6982 23.4119 32.994 24.75 33C24.95 33 25.15 32.982 25.35 32.97C25.3982 32.9875 25.4488 32.9976 25.5 33H30.5C31.163 33 31.7989 32.7366 32.2677 32.2678C32.7366 31.799 33 31.1631 33 30.5V27.911C33.6561 26.6221 33.9988 25.1964 34 23.75ZM32 19.5V20.587L27.949 18H30.5C30.8978 18 31.2793 18.1581 31.5606 18.4394C31.8419 18.7207 32 19.1022 32 19.5ZM26.4 16.468C26.5115 16.5104 26.6344 16.5115 26.7466 16.4711C26.8589 16.4308 26.953 16.3517 27.012 16.248L28 14.509L28.992 16.248C29.051 16.3517 29.1451 16.4308 29.2573 16.4711C29.3695 16.5115 29.4925 16.5104 29.604 16.468L30.847 16L30.21 17H25.79L25.153 16L26.4 16.468ZM25.5 18H26.09L32 21.774V22H28.638L24.027 19.233C24.0895 18.8876 24.2711 18.5751 24.5402 18.3498C24.8094 18.1245 25.149 18.0007 25.5 18ZM24 20.383L26.7 22H24V20.383ZM19.431 32.005C19.295 31.9662 19.1649 31.9094 19.044 31.836C18.7289 31.6398 18.3703 31.5244 18 31.5C17.6179 31.5185 17.2479 31.6398 16.929 31.851C16.8244 31.918 16.7114 31.9708 16.593 32.008C15.684 31.838 15 29.459 15 28C15 27.211 15.286 26.2 17.413 26.033C17.4136 26.3844 17.4471 26.7349 17.513 27.08C17.5375 27.191 17.5991 27.2903 17.6877 27.3615C17.7762 27.4328 17.8863 27.4718 18 27.472C18.0356 27.472 18.0712 27.468 18.106 27.46C18.2353 27.432 18.3482 27.3538 18.42 27.2427C18.4918 27.1315 18.5166 26.9964 18.489 26.867C18.4403 26.5883 18.4155 26.306 18.415 26.023C20.7 26.142 21 27.191 21 28C21 29.568 20.4 31.851 19.431 32.005ZM21.365 31.259C21.4947 30.9487 21.6013 30.6291 21.684 30.303C22.725 30.797 23.8692 31.0346 25.0209 30.9959C26.1726 30.9572 27.2982 30.6434 28.3038 30.0807C29.3094 29.518 30.1657 28.7228 30.801 27.7615C31.4364 26.8001 31.8324 25.7007 31.956 24.555C31.9636 24.4896 31.9583 24.4233 31.9402 24.36C31.9222 24.2966 31.8918 24.2374 31.8508 24.1859C31.8098 24.1343 31.7591 24.0913 31.7014 24.0594C31.6438 24.0275 31.5804 24.0074 31.515 24C31.4495 23.9915 31.3829 23.9964 31.3193 24.0142C31.2556 24.032 31.1963 24.0624 31.1446 24.1036C31.093 24.1449 31.0503 24.1961 31.0189 24.2542C30.9875 24.3124 30.9681 24.3762 30.962 24.442C30.8526 25.4499 30.4991 26.4159 29.932 27.2563C29.365 28.0967 28.6015 28.7861 27.7077 29.2646C26.814 29.7432 25.817 29.9966 24.8032 30.0028C23.7895 30.0089 22.7895 29.7677 21.89 29.3C21.9575 28.8699 21.9943 28.4354 22 28C22 26.706 21.376 25.178 18.512 25.016C18.5517 24.8116 18.6086 24.6109 18.682 24.416C18.7272 24.293 18.7223 24.1572 18.6684 24.0378C18.6145 23.9184 18.5158 23.8249 18.3937 23.7774C18.2716 23.73 18.1357 23.7324 18.0153 23.7841C17.8949 23.8359 17.7996 23.9328 17.75 24.054C17.6323 24.3655 17.5469 24.6882 17.495 25.017C17.2038 25.0319 16.9139 25.0653 16.627 25.117C16.5467 24.6657 16.5042 24.2084 16.5 23.75C16.5 23.529 16.512 23.255 16.529 23H32.971C32.988 23.255 33 23.529 33 23.75C33.0046 25.1291 32.6622 26.4872 32.0045 27.6993C31.3467 28.9114 30.3947 29.9386 29.236 30.6864C28.0773 31.4342 26.7491 31.8786 25.3737 31.9787C23.9982 32.0787 22.6197 31.8313 21.365 31.259ZM32 30.5C32 30.8979 31.8419 31.2794 31.5606 31.5607C31.2793 31.842 30.8978 32 30.5 32H28.911C30.1111 31.3925 31.1651 30.5317 32 29.477V30.5Z" fill="#FE6E4C"/>
<path d="M28.5 24C28.3674 24 28.2402 24.0527 28.1464 24.1464C28.0527 24.2402 28 24.3674 28 24.5V25.5C28 25.6326 28.0527 25.7598 28.1464 25.8536C28.2402 25.9473 28.3674 26 28.5 26C28.6326 26 28.7598 25.9473 28.8536 25.8536C28.9473 25.7598 29 25.6326 29 25.5V24.5C29 24.3674 28.9473 24.2402 28.8536 24.1464C28.7598 24.0527 28.6326 24 28.5 24Z" fill="#FE6E4C"/>
<path d="M22.5 24C22.3674 24 22.2402 24.0527 22.1464 24.1464C22.0527 24.2402 22 24.3674 22 24.5V25.5C22 25.6326 22.0527 25.7598 22.1464 25.8536C22.2402 25.9473 22.3674 26 22.5 26C22.6326 26 22.7598 25.9473 22.8536 25.8536C22.9473 25.7598 23 25.6326 23 25.5V24.5C23 24.3674 22.9473 24.2402 22.8536 24.1464C22.7598 24.0527 22.6326 24 22.5 24Z" fill="#FE6E4C"/>
<path d="M25.5 25C25.3674 25 25.2402 25.0527 25.1464 25.1464C25.0527 25.2402 25 25.3674 25 25.5V26.5C25 26.6326 25.0527 26.7598 25.1464 26.8536C25.2402 26.9473 25.3674 27 25.5 27C25.6326 27 25.7598 26.9473 25.8536 26.8536C25.9473 26.7598 26 26.6326 26 26.5V25.5C26 25.3674 25.9473 25.2402 25.8536 25.1464C25.7598 25.0527 25.6326 25 25.5 25Z" fill="#FE6E4C"/>
</svg>
