<svg width="20" height="18" viewBox="0 0 20 18" fill="none" xmlns="http://www.w3.org/2000/svg">
<path d="M0 16.3213V10.488C0.00220571 8.49955 0.79309 6.59317 2.19914 5.18713C3.60518 3.78108 5.51155 2.9902 7.5 2.98799H11.525V1.66633C11.5251 1.33674 11.6229 1.01458 11.806 0.740563C11.9891 0.466546 12.2494 0.25298 12.5539 0.126863C12.8584 0.000746682 13.1935 -0.0322581 13.5167 0.0320211C13.84 0.0963004 14.1369 0.254978 14.37 0.487993L19.27 5.38716C19.7387 5.85598 20.002 6.49175 20.002 7.15466C20.002 7.81757 19.7387 8.45334 19.27 8.92216L14.37 13.8213C14.1369 14.0543 13.84 14.213 13.5167 14.2773C13.1935 14.3416 12.8584 14.3086 12.5539 14.1825C12.2494 14.0563 11.9891 13.8428 11.806 13.5688C11.6229 13.2947 11.5251 12.9726 11.525 12.643V11.3213H6.66667C5.34099 11.3227 4.06999 11.8499 3.13259 12.7873C2.1952 13.7246 1.66799 14.9956 1.66667 16.3213C1.66667 16.5423 1.57887 16.7543 1.42259 16.9106C1.26631 17.0669 1.05435 17.1547 0.833333 17.1547C0.61232 17.1547 0.400358 17.0669 0.244078 16.9106C0.0877974 16.7543 0 16.5423 0 16.3213ZM13.1917 3.82133C13.1917 4.04234 13.1039 4.2543 12.9476 4.41058C12.7913 4.56686 12.5793 4.65466 12.3583 4.65466H7.5C5.95344 4.65642 4.47074 5.27157 3.37716 6.36515C2.28358 7.45873 1.66843 8.94144 1.66667 10.488V11.9163C2.29131 11.2054 3.06041 10.636 3.92263 10.246C4.78484 9.85597 5.72034 9.65438 6.66667 9.65466H12.3583C12.5793 9.65466 12.7913 9.74246 12.9476 9.89874C13.1039 10.055 13.1917 10.267 13.1917 10.488V12.643L18.0908 7.74383C18.2471 7.58755 18.3348 7.37563 18.3348 7.15466C18.3348 6.93369 18.2471 6.72177 18.0908 6.56549L13.1917 1.66633V3.82133Z" fill="#0C1A30"/>
</svg>
